<?xml version="1.0" encoding="utf-8"?>
<!-- Generator: Adobe Illustrator 16.0.0, SVG Export Plug-In . SVG Version: 6.00 Build 0)  -->
<!DOCTYPE svg PUBLIC "-//W3C//DTD SVG 1.1//EN" "http://www.w3.org/Graphics/SVG/1.1/DTD/svg11.dtd">
<svg version="1.1" id="slime_xA0_Image_1_" xmlns="http://www.w3.org/2000/svg" xmlns:xlink="http://www.w3.org/1999/xlink" x="0px"
	 y="0px" width="232.012px" height="163.008px" viewBox="0 0 232.012 163.008" enable-background="new 0 0 232.012 163.008"
	 xml:space="preserve">
<g>
	<path fill-rule="evenodd" clip-rule="evenodd" fill="#7C8274" d="M179.019,158.266c-2.405-0.042-4.81-0.088-7.215-0.123
		c-0.33-0.004-0.781-0.083-0.973,0.094c-3.462,3.184-7.714,1.434-11.605,1.911c-2.076,0.255-4.45-0.869-6.118,1.587
		c-0.353,0.52-2.046,0.124-3.122,0.157c-1.159,0.034-2.318,0.076-3.478,0.115c-10.071-0.034-20.149,0.127-30.213-0.166
		c-7.716-0.225-15.411-1.111-23.124-1.533c-4.393-0.241-8.807-0.08-13.206-0.245c-0.915-0.034-1.79-0.752-2.713-1.07
		c-0.996-0.343-2.015-0.775-3.042-0.834c-2.241-0.126-4.494-0.01-6.741-0.051c-1.658-0.029-3.091-0.039-4.72-1.264
		c-1.4-1.052-3.971-0.567-6.027-0.718c-1.346-0.099-2.855,0.401-3.671-1.298c-0.129-0.269-0.758-0.49-1.105-0.432
		c-2.892,0.488-5.042-1.486-7.424-2.417c-4.051-1.584-7.504-4.344-10.262-7.744c-0.588-0.725-0.187-2.245-0.257-3.397
		c-0.183-2.968-0.255-5.875,2.907-7.588c0.207-0.111,0.119-0.77,0.168-1.174c0.127-0.04,0.257-0.071,0.389-0.095
		c0.194,0.956,0.393,1.912,0.582,2.869c0.311,1.583,0.616,3.167,0.923,4.75c2.282,5.612,7.581,7.299,12.54,8.743
		c6.245,1.819,12.781,2.642,19.191,3.896c2.927,0.573,5.852,1.154,8.777,1.731c0.175,0.012,0.351,0.022,0.526,0.034
		c0.341,0.011,0.683,0.022,1.023,0.033c3.374,0.171,5.56,0.281,8.51,0.43c1.614,0.074,3.229,0.148,4.844,0.221
		c0.587,0.29,1.174,0.831,1.762,0.832c17.891,0.044,35.782,0.052,53.672-0.028c0.752-0.003,1.499-0.894,2.248-1.371
		c3.745-0.093,7.49-0.158,11.232-0.292c1.323-0.047,2.664-0.146,3.953-0.423c1.726-0.369,3.38-1.127,5.114-1.382
		c6.208-0.913,12.438-1.681,18.655-2.528c0.17-0.022,0.303-0.324,0.453-0.495c2.62-1.029,5.294-1.942,7.84-3.129
		c1.609-0.75,3.131-1.785,4.502-2.922c1.207-1.001,2.148-2.321,3.206-3.5c0.179-0.233,0.49-0.452,0.517-0.701
		c0.385-3.594,0.73-7.19,1.085-10.786c0.176,0.369,0.352,0.739,0.527,1.109c-0.78,2.647,0.101,4.71,2.168,6.419
		c0.362,0.301,0.604,0.898,0.66,1.387c0.104,0.904-0.046,1.836,0.047,2.742c0.263,2.597,0.079,5.074-2.256,6.719
		c-1.912,1.346-3.045,3.552-5.707,4.166c-2.034,0.47-3.783,2.114-5.712,3.137c-0.61,0.323-1.418,0.253-2.091,0.489
		c-1.316,0.465-2.582,1.079-3.908,1.513c-0.829,0.271-1.727,0.348-2.599,0.469c-2.649,0.368-5.637-1.004-7.845,1.796
		C181.48,158.452,180.009,158.168,179.019,158.266z"/>
	<path fill-rule="evenodd" clip-rule="evenodd" fill="#0C110B" d="M203.766,80.63c0.174,1.31,0.514,2.188,0.688,3.5
		c0.098,0.792,0.185,1.835,0.304,2.5c0.622,3.461,1.068,6.925,1.79,10.369c0.293,2.304,0.962,3.756,1.126,6.048
		c0.055,0.755,0.007,2.059,0.303,3.036c0.078,0.479,0.157,0.958,0.235,1.436c0.066,0.569,0.134,1.138,0.2,1.706
		c0.027,0.26,0.054,0.521,0.08,0.78c0.044,5.986,0.088,11.973,0.131,17.96c-0.354,3.596-0.7,7.192-1.085,10.786
		c-0.026,0.249-0.338,0.468-0.517,0.701c-0.454-1.455,0.939-3.329-1.007-4.446c0.079-1.307,0.158-2.613,0.237-3.92
		c0.104-1.811,0.349-3.627,0.285-5.433c-0.173-4.866-0.373-9.736-0.767-14.589c-0.247-3.034-0.865-6.038-1.316-9.056
		c-0.634-3.668-1.327-7.327-1.884-11.007c-0.395-2.613-0.577-5.259-0.91-7.883c-0.173-1.364-0.442-2.718-0.709-4.068
		c-0.396-2.002-0.75-4.018-1.266-5.99c-0.761-2.91-1.575-5.811-2.504-8.671c-0.901-2.778-1.955-5.508-2.979-8.245
		c-1.445-3.861-2.741-7.793-4.457-11.531c-1.028-2.239-2.724-4.173-4.14-6.23c-2.744-3.987-5.192-8.231-8.335-11.876
		c-3.699-4.29-8.79-6.763-14.101-8.667c-3.521-1.327-7.044-2.653-10.565-3.98c-3.274-0.778-6.516-1.782-9.833-2.271
		c-3.215-0.473-6.507-0.416-9.766-0.592c-0.978-0.322-1.95-0.904-2.933-0.92c-3.557-0.057-7.118,0.166-10.677,0.12
		c-7.18-0.092-14.408-0.439-21.347,1.792c-5.611,1.805-11.196,3.779-16.596,6.13c-8.37,3.645-15.088,9.33-19.503,17.476
		c-0.776,1.432-1.439,2.925-2.178,4.378c-1.825,3.585-3.784,7.109-5.463,10.761c-1.658,3.604-2.753,7.487-4.603,10.979
		c-3.549,6.701-5.348,13.854-6.415,21.265c-0.286,2.456-0.632,4.907-0.847,7.37c-0.381,4.371-0.207,8.857-1.162,13.093
		c-0.829,3.673-1.419,7.225-1.37,10.993c0.084,6.352-0.182,12.708-0.301,19.062c0.319,0.833,0.638,1.666,0.957,2.498
		c-0.17,0.504-0.34,1.008-0.51,1.512c-0.363,0.697-0.726,1.396-1.089,2.093c-0.307-1.583-0.612-3.167-0.923-4.75
		c-0.188-0.957-0.387-1.913-0.582-2.869c-0.005-7.153-0.01-14.307-0.016-21.459c0.362-2.431,0.848-4.851,1.062-7.293
		c0.576-6.601,0.792-13.241,1.63-19.806c0.529-4.144,1.721-8.241,2.982-12.244c1.155-3.667,2.803-7.179,4.233-10.76
		c2.121-5.194,4.149-10.43,6.403-15.567c1.093-2.492,2.586-4.812,3.936-7.188c1.923-3.388,3.881-6.757,5.824-10.135
		c0.519-0.397,1.066-0.762,1.552-1.196c2.983-2.66,5.705-5.708,9-7.896c3.038-2.016,6.688-3.106,10.063-4.619
		c1.304-0.584,2.59-1.206,3.885-1.811c0.339-0.084,0.679-0.168,1.019-0.253c0.249-0.045,0.498-0.09,0.746-0.135
		c0.24-0.04,0.479-0.079,0.719-0.118c1.223-0.478,2.445-0.956,3.667-1.433l0.204,0.035L94.5,9.943
		c1.328-0.179,2.656-0.358,3.984-0.537c3.643-1.562,7.482-1.488,11.339-1.44c4.063,0.051,8.128-0.041,12.192-0.07
		c4.827,0.005,9.655,0.011,14.482,0.016c0.338-0.002,0.677-0.004,1.015-0.006c4.248,0.712,8.552,1.198,12.727,2.212
		c2.961,0.719,5.748,2.154,8.614,3.263c4.401,1.704,6.62,2.559,11.022,4.26c0.254,0.3,2.649,1.501,2.954,1.737
		c4.062,3.147,6.05,3.44,9.118,7.572c0.501,0.808,2.464,3.217,3.978,5.085c1.517,2.095,2.579,4.032,2.829,5.282
		c3.491,4.813,4.637,8.277,6.625,13.938c0.406,1.922,1.01,3.736,1.623,5.591c0.967,2.929,2.391,5.717,3.243,8.674
		c0.978,3.386,1.488,6.904,2.324,10.335c0.191,0.787,0.46,1.756,0.852,2.608"/>
	<path fill-rule="evenodd" clip-rule="evenodd" fill="#0F120E" d="M38.969,139.601c0.363-0.697,0.726-1.396,1.088-2.093
		c0.917,3.046,3.686,4.233,5.951,5.927c4.431,1.567,8.861,3.134,13.293,4.701c1.788,0.612,3.532,1.518,5.369,1.784
		c5.427,0.789,10.943,0.479,16.365,1.92c3.358,0.892,7.061,0.586,10.611,0.615c0.901-0.076,3.401-0.097,3.026,1.041
		c-0.045,0.184-0.246,1.011-0.291,1.193c-1.615-0.072-3.23-0.146-4.845-0.221c-2.836-0.143-5.673-0.286-8.51-0.43
		c-0.341-0.011-0.682-0.022-1.023-0.033c-0.175-0.012-0.351-0.022-0.526-0.034c-2.926-0.577-5.851-1.158-8.777-1.731
		c-6.41-1.255-12.946-2.077-19.191-3.896C46.55,146.9,41.251,145.213,38.969,139.601z"/>
	<path fill-rule="evenodd" clip-rule="evenodd" d="M94.382,154.69c0.076-0.305,0.317-1.249,0.333-1.311
		c12.792-0.291,25.055,0.719,37.68,0.606c6.538-0.058,13.074-0.319,19.612-0.489c0.02,0.209,0.039,0.418,0.058,0.626
		c-0.749,0.478-1.496,1.368-2.248,1.371c-17.891,0.08-35.781,0.072-53.672,0.028C95.556,155.521,94.969,154.98,94.382,154.69z"/>
	<path fill-rule="evenodd" clip-rule="evenodd" fill="#0F120E" d="M152.064,154.123c-0.019-0.208-0.038-0.417-0.058-0.626
		c1.1-0.275,2.186-0.656,3.304-0.81c6.899-0.942,13.807-1.833,20.712-2.741c1.333-0.179,2.666-0.357,3.999-0.535
		c3.164-0.455,6.328-0.91,9.492-1.364c0.653,0.318,1.306,0.638,1.959,0.956c-0.15,0.171-0.283,0.473-0.453,0.495
		c-6.218,0.848-12.447,1.615-18.655,2.528c-1.734,0.255-3.389,1.013-5.114,1.382c-1.289,0.276-2.63,0.376-3.953,0.423
		C159.555,153.964,155.81,154.03,152.064,154.123z"/>
	<path fill-rule="evenodd" clip-rule="evenodd" fill="#1C2318" d="M191.473,149.002c-0.653-0.318-1.306-0.638-1.959-0.956
		c0.532-0.219,1.066-0.434,1.598-0.655c6.243-2.594,12.59-5.062,14.902-12.386c1.946,1.117,0.553,2.991,1.007,4.446
		c-1.058,1.179-1.999,2.499-3.206,3.5c-1.371,1.137-2.893,2.172-4.502,2.922C196.767,147.06,194.093,147.973,191.473,149.002z"/>
	<path fill-rule="evenodd" clip-rule="evenodd" fill="#87E264" d="M43.291,82.98c1.067-7.411,2.866-14.564,6.415-21.265
		c1.849-3.492,2.944-7.375,4.603-10.979c1.679-3.652,3.638-7.176,5.463-10.761c0.739-1.453,1.402-2.946,2.178-4.378
		c4.416-8.146,11.133-13.832,19.503-17.476c5.399-2.351,10.985-4.325,16.596-6.13c6.939-2.232,14.167-1.885,21.347-1.792
		c3.559,0.046,7.12-0.177,10.677-0.12c0.982,0.016,1.955,0.598,2.933,0.92c-0.189,1.488,0.397,2.075,1.955,2.068
		c0.692-0.003,1.378,0.725,2.084,1.087c0.599,0.307,1.202,0.629,1.841,0.828c0.539,0.167,1.597,0.075,1.631,0.252
		c0.571,2.938,4.751,0.701,5.212,3.678c1.87-0.292,3.024,0.705,4.183,2.034c1.589,1.823,3.405,3.447,5.118,5.162
		c1.614,1.617,3.338,3.145,4.801,4.889c1.887,2.248,5.432,3.304,5.247,7.102c-0.013,0.248,0.309,0.713,0.517,0.738
		c1.589,0.193,1.377,1.346,1.441,2.431c0.032,0.532,0.225,1.45,0.493,1.508c2.171,0.472,1.264,2.163,1.492,3.412
		c0.167,0.914,0.338,1.848,0.68,2.703c0.316,0.788,1.068,1.433,1.266,2.231c0.374,1.517-0.802,3.601,1.747,4.273
		c0.185,0.049,0.233,0.738,0.287,1.138c0.239,1.79-0.894,4.056,1.811,5.006c0.206,0.073,0.183,0.923,0.191,1.414
		c0.023,1.416-0.055,2.836,0.041,4.245c0.039,0.581,0.381,1.157,0.648,1.705c0.411,0.837,1.252,1.644,1.261,2.471
		c0.095,8.576,0.092,17.154,0.028,25.73c-0.012,1.555,0.872,3.59-1.659,4.308c-0.237,0.066-0.28,1.052-0.297,1.614
		c-0.041,1.414,0.054,2.836-0.05,4.244c-0.042,0.57-0.429,1.127-0.707,1.665c-0.396,0.765-0.827,1.513-1.262,2.257
		c-0.365,0.624-0.743,1.241-1.143,1.843c-0.251,0.377-0.813,0.738-0.79,1.076c0.205,3.01-2.209,3.998-4.06,5.427
		c-0.156,0.008-0.312,0.01-0.469,0.004c-2.957-0.342-5.906-0.868-8.872-0.992c-10.12-0.424-20.244-0.849-30.37-1.003
		c-11.081-0.169-22.167-0.074-33.251-0.01c-2.393,0.014-4.848,0.109-7.164,0.646c-7.093,1.644-14.136,3.508-21.187,5.333
		c-0.455,0.118-0.808,0.633-1.208,0.963c-0.327,0.002-0.655,0.003-0.982,0.005c-0.166-0.157-0.331-0.315-0.497-0.473
		c-1.315-1.249-2.65-2.479-3.942-3.752c-1.777-1.749-3.793-3.339-5.208-5.349c-1.615-2.294-5.244-3.177-4.91-6.856
		c0.025-0.271-0.221-0.794-0.403-0.824c-2.188-0.365-1.364-2.07-1.56-3.337c-0.143-0.927-0.184-2.503-0.622-2.637
		c-1.659-0.506-1.359-1.665-1.362-2.779c-0.012-4.491-0.033-8.983,0.012-13.474C45.031,83.736,44.821,82.84,43.291,82.98z
		 M59.951,61.919c0,1.75-0.202,3.531,0.079,5.234c0.159,0.961,0.963,2.338,1.741,2.548c1.104,0.297,2.929,0.131,3.609-0.607
		c2.505-2.718,4.707-5.732,4.712-9.73c0-0.323,0.084-0.664,0.205-0.966c1.263-3.156,2.437-6.355,3.854-9.442
		c0.924-2.014,1.963-4.069,3.382-5.742c2.299-2.71,4.932-5.141,7.465-7.647c1.2-1.187,2.354-2.526,3.786-3.35
		c1.935-1.113,4.136-1.756,6.189-2.674c3.966-1.772,7.771-4.113,11.91-5.22c2.9-0.776,6.006-0.521,8.833-2.202
		c1.474-0.876,2.361-1.62,2.344-3.303c-0.018-1.714-1.052-2.87-2.58-2.713c-5.943,0.609-12.209-2.107-17.854,1.679
		c-0.305,0.204-0.833,0.041-1.216,0.171c-2.56,0.869-5.175,1.621-7.639,2.711c-1.92,0.85-3.545,2.388-5.484,3.165
		c-2.972,1.19-6.156,2.12-8.184,4.667c-2.458,3.087-6.616,4.753-7.443,9.27c-0.296,1.619-1.649,3.025-2.417,4.58
		c-1.356,2.745-3.632,5.114-3.337,8.544c0.122,1.418,0.379,2.919-1.263,3.987c-0.551,0.358-0.61,1.66-0.671,2.545
		C59.871,58.916,59.945,60.42,59.951,61.919z M144.007,83.848c0,2.497-0.011,4.994,0.004,7.49c0.014,2.555,2.072,4.636,4.592,4.665
		c0.915,0.011,1.831,0.009,2.746,0c2.558-0.025,4.646-2.07,4.655-4.602c0.015-4.91-0.185-9.831,0.082-14.726
		c0.138-2.508-1.767-3.682-3.023-4.412c-4.073-2.362-9.055,0.922-9.056,5.592C144.007,79.854,144.007,81.851,144.007,83.848z
		 M106.005,83.963c0-1.165,0-2.33,0-3.496c0-1.165,0.003-2.33-0.001-3.495c-0.011-3.054-1.945-4.959-5.042-4.968
		c-0.915-0.002-1.832-0.022-2.746,0.005c-1.939,0.058-4.193,2.33-4.203,4.297c-0.024,5.077,0.109,10.157-0.059,15.228
		c-0.081,2.442,1.838,3.694,3.164,4.271c4.731,2.057,8.893-1.011,8.887-6.1C106.003,87.792,106.005,85.877,106.005,83.963z
		 M55.32,91.187c0.72,1.518,1.038,3.715,2.236,4.425c3.542,2.098,6.536,0.078,6.547-4.019c0.001-0.416,0.001-0.832,0-1.248
		c-0.014-3.799-0.759-4.532-4.512-4.441C56.454,85.98,55.903,86.728,55.32,91.187z"/>
	<path fill-rule="evenodd" clip-rule="evenodd" fill="#68BC62" d="M180.096,128.537"/>
	<path fill-rule="evenodd" clip-rule="evenodd" fill="#68BC62" d="M179.1,129.801c-0.169,0.169-0.581,0.44-0.75,0.609l-0.254,0.126
		c-0.166,0.158-0.326,0.309-0.492,0.467c-0.178,0.179-0.355,0.356-0.533,0.535c-0.159,0.166-0.318,0.332-0.477,0.498l0,0
		c-0.168,0.677-0.328,1.344-0.496,2.021c-2.846,2.345-5.577,4.847-8.572,6.979c-2.026,1.444-4.438,2.282-6.551,3.623
		c-2.107,1.338-4.246,2.414-6.891,2.297c-0.4-0.018-0.688,0.773-1.5,1.156c-0.92,0.248-1.849,0.397-2.828,0.396
		c-2.698-0.006-5.053,0.028-7.75,0.04c-0.978,0.005-2.43-0.008-3.406,0.002c-0.858,0.009-1.644-0.035-2.5,0.141
		c-1.157,0.493-2.324,0.848-3.48,1.341c-1.468,1.211-5.666,0.493-8.551,0.493c-3.635,0-7.396,0.001-11.031,0.001
		c-3.166,0-8.094,0.415-9.561-0.515c-0.707-0.336-1.394-0.907-2.123-0.966c-3.219-0.26-6.453-0.347-9.677-0.557
		c-0.792-0.052-1.59-0.271-2.35-0.522c-1.336-0.442-2.613-1.229-3.974-1.397c-1.97-0.242-3.996,0.007-5.99-0.098
		c-0.759-0.039-1.504-0.455-2.243-0.735c-1.031-0.393-2.027-0.896-3.081-1.203c-0.776-0.227-2.043,0.086-2.364-0.362
		c-1.52-2.12-3.675-1.569-5.69-1.694c-0.164-0.156-0.327-0.312-0.491-0.469l0.008,0.008c-0.158-0.165-0.316-0.331-0.475-0.496
		c-0.179-0.179-0.357-0.357-0.536-0.536c-0.166-0.158-0.333-0.316-0.499-0.476l0.011,0.009c-0.844-0.168-1.688-0.336-2.531-0.505
		c-0.327-0.343-0.654-0.686-0.98-1.028c-0.167-0.158-0.333-0.316-0.499-0.476l0.01,0.009c-0.843-0.168-1.687-0.336-2.531-0.505
		c-0.327-0.343-0.654-0.686-0.981-1.028c-0.167-0.158-0.333-0.316-0.499-0.475L56,136.517c-0.169-0.169-0.338-0.339-0.507-0.508
		l0.007,0.007c-0.158-0.166-0.316-0.332-0.474-0.498c-0.178-0.178-0.357-0.356-0.535-0.535c-0.166-0.158-0.332-0.315-0.498-0.474
		L54,134.516c-0.169-0.169-0.338-0.338-0.507-0.507l0.007,0.007c-0.158-0.166-0.316-0.332-0.475-0.498
		c-0.178-0.178-0.356-0.356-0.535-0.534c-0.166-0.159-0.333-0.317-0.499-0.476l0.009,0.009c-0.328-0.013-0.655-0.024-0.982-0.037
		c0.046,1.392-0.479,3.307,0.235,4.087c3.537,3.862,7.161,7.751,12.607,9.048c0.45,0.107,0.732,0.919,1.092,1.402
		c-0.473,0.329-0.918,0.883-1.423,0.943c-1.397,0.169-2.819,0.132-4.231,0.176c-4.431-1.567-8.861-3.134-13.292-4.701
		c-0.782-3.233-2.832-5.54-5.44-7.438c-0.319-0.832-0.638-1.665-0.957-2.498c3.228-1.224,6.47-2.413,9.668-3.711
		c0.45-0.183,0.668-0.908,1.022-1.36c0.348-0.445,0.664-1.14,1.111-1.25c3.851-0.954,7.728-1.801,11.597-2.68
		c0.167-0.005,0.333-0.011,0.5-0.017c0.328-0.002,0.655-0.003,0.983-0.004c1.522,1.479,3.446,2.729,4.457,4.501
		c1.059,1.856,2.796,1.428,4.144,2.162c2.385,1.3,4.75,2.695,7.271,3.667c1.933,0.744,4.028,0.574,6.153,1.437
		c3.916,1.588,8.465,1.228,12.735,1.954c7.448,1.27,15.219,0.693,22.856,0.773c1.967,0.02,4.405,0.231,5.779-0.787
		c1.478-1.095,2.757-1.071,4.249-1.184c1.479-0.111,2.953-0.348,4.435-0.399c1.857-0.064,3.424-0.679,5.151-1.436
		c3.093-1.354,6.605-1.711,9.863-2.738c1.687-0.531,3.465-1.319,4.745-2.491c2.931-2.685,5.578-5.679,8.347-8.541
		c0.61-0.631,1.243-1.237,1.866-1.855c0.156,0.006,0.312,0.004,0.469-0.004c4.852,0.823,9.698,1.688,14.562,2.438
		c1.046,0.161,2.063,0.031,1.94,1.531c-0.004,0.158-0.004,0.317,0,0.476c-0.159,0.015-0.192,0.082-0.353,0.086
		c-0.173,0.169-0.248,0.315-0.422,0.484l0,0c-0.168,0.676-0.475,1.331-0.643,2.006c-0.343,0.327-0.576,0.683-0.92,1.01"/>
	<path fill-rule="evenodd" clip-rule="evenodd" fill="#74C86C" d="M183.524,123.283c-0.081-0.981-0.904-1.147-1.95-1.309
		c-4.863-0.751-9.71-1.615-14.562-2.438c1.851-1.429,4.265-2.417,4.06-5.427c-0.023-0.338,0.539-0.699,0.79-1.076
		c0.399-0.602,0.777-1.219,1.143-1.843c0.435-0.744,0.866-1.492,1.262-2.257c0.278-0.538,0.665-1.095,0.707-1.665
		c0.104-1.408,0.009-2.83,0.05-4.244c0.017-0.562,0.06-1.548,0.297-1.614c2.531-0.718,1.647-2.753,1.659-4.308
		c0.063-8.576,0.066-17.154-0.028-25.73c-0.009-0.827-0.85-1.633-1.261-2.471c-0.268-0.547-0.609-1.124-0.648-1.705
		c-0.096-1.409-0.018-2.83-0.041-4.245c-0.009-0.49,0.015-1.341-0.191-1.414c-2.704-0.951-1.571-3.217-1.811-5.006
		c-0.054-0.399-0.103-1.089-0.287-1.138c-2.549-0.673-1.373-2.757-1.747-4.273c-0.197-0.798-0.949-1.443-1.266-2.231
		c-0.342-0.855-0.513-1.79-0.68-2.703c-0.229-1.249,0.679-2.94-1.492-3.412c-0.269-0.058-0.461-0.977-0.493-1.508
		c-0.064-1.084,0.147-2.237-1.441-2.431c-0.208-0.025-0.529-0.491-0.517-0.738c0.185-3.798-3.36-4.854-5.247-7.102
		c-1.463-1.744-3.187-3.271-4.801-4.889c-1.713-1.715-3.529-3.339-5.118-5.162c-1.158-1.329-2.312-2.327-4.183-2.034
		c-0.461-2.977-4.641-0.739-5.212-3.678c-0.034-0.177-1.092-0.085-1.631-0.252c-0.639-0.198-1.242-0.521-1.841-0.828
		c-0.706-0.362-1.392-1.09-2.084-1.087c-1.558,0.007-2.145-0.58-1.955-2.068c3.259,0.176,6.551,0.119,9.766,0.592
		c3.317,0.488,6.559,1.492,9.832,2.271c-0.307,0.427-0.613,0.853-0.82,1.14c1.207,0.892,2.158,2.133,3.302,2.344
		c4.339,0.803,6.072,4.904,9.315,7.107c3.366,2.287,5.605,6.177,8.842,8.725c3.511,2.764,5.206,6.586,7.015,10.27
		c1.106,2.253,3.188,4.491,2.35,7.482c-0.059,0.208,0.377,0.52,0.494,0.817c0.488,1.239,0.982,2.479,1.394,3.745
		c0.199,0.614-0.013,1.609,0.36,1.876c1.797,1.287,1.685,3.087,1.688,4.93c0.001,0.456,0.307,0.91,0.47,1.366
		c0.5,1.398,1.206,2.763,1.445,4.206c0.296,1.784,0.006,3.67,0.336,5.444c0.345,1.858,1.562,3.617,1.634,5.45
		c0.224,5.656-0.259,11.354,0.179,16.985c0.441,5.691-3.194,10.716-2.166,16.413c0.085,0.467-0.449,1.031-0.649,1.567
		c-1.094,2.929-2.172,5.862-3.256,8.794c-0.19,0.327-0.38,0.655-0.569,0.983c-0.091,0-0.225,0.476-0.45,0.476
		C183.455,123.981,183.396,123.52,183.524,123.283z"/>
	<path fill-rule="evenodd" clip-rule="evenodd" fill="#75975D" d="M184.534,122.522c1.084-2.932,2.162-5.865,3.256-8.794
		c0.2-0.536,0.734-1.101,0.649-1.567c-1.028-5.697,2.607-10.722,2.166-16.413c-0.438-5.631,0.045-11.329-0.179-16.985
		c-0.072-1.833-1.289-3.592-1.634-5.45c-0.33-1.774-0.04-3.66-0.336-5.444c-0.239-1.442-0.945-2.807-1.445-4.206
		c-0.163-0.456-0.469-0.91-0.47-1.366c-0.004-1.842,0.108-3.643-1.688-4.93c-0.373-0.267-0.161-1.262-0.36-1.876
		c-0.411-1.266-0.905-2.506-1.394-3.745c-0.117-0.298-0.553-0.609-0.494-0.817c0.839-2.992-1.243-5.229-2.35-7.482
		c-1.809-3.683-3.504-7.505-7.015-10.27c-3.236-2.548-5.476-6.438-8.842-8.725c-3.243-2.203-4.977-6.304-9.315-7.107
		c-1.144-0.211-2.095-1.453-3.302-2.344c0.207-0.287,0.514-0.713,0.82-1.14c3.522,1.327,7.045,2.654,10.566,3.981
		c-0.162,0.183-0.324,0.366-0.486,0.548c1.203,1.038,2.362,2.135,3.634,3.082c0.479,0.357,1.569,0.174,1.781,0.563
		c1.292,2.374,4.762,3.221,4.635,6.619c-0.01,0.262,1.015,0.618,1.594,0.831c0.528,0.194,1.287,0.069,1.631,0.405
		c1.573,1.535,3.057,3.165,4.531,4.797c0.716,0.793,1.571,1.572,1.965,2.523c0.987,2.382,2.739,4.566,2.221,7.417
		c-0.029,0.164,0.239,0.514,0.427,0.564c1.856,0.502,1.258,2.01,1.435,3.251c0.142,0.996,0.481,1.976,0.834,2.924
		c0.306,0.822,1.12,1.615,1.073,2.381c-0.201,3.283,3.121,5.623,2.32,9.036c-0.037,0.158,0.66,0.426,0.909,0.73
		c0.331,0.404,0.759,0.88,0.794,1.351c0.148,2.004-0.436,4.185,1.847,5.529c0.292,0.172,0.18,1.096,0.187,1.672
		c0.021,1.666-0.064,3.336,0.04,4.995c0.049,0.766,0.405,1.524,0.692,2.259c0.39,0.997,1.198,1.96,1.218,2.951
		c0.121,6.077,0.07,12.158,0.076,18.237c-0.005,5.077,0.009,10.154-0.037,15.231c-0.007,0.794-0.033,2.046-0.487,2.298
		c-1.83,1.013-1.405,2.616-1.51,4.149c-0.076,1.116-0.323,2.221-0.494,3.33C190.843,124.518,187.688,123.52,184.534,122.522z"/>
	<path fill-rule="evenodd" clip-rule="evenodd" fill="#73C76B" d="M63.01,124.498c-3.869,0.879-7.747,1.726-11.597,2.68
		c-0.447,0.11-0.763,0.805-1.111,1.25c-0.354,0.452-0.572,1.178-1.022,1.36c-3.198,1.298-6.44,2.487-9.668,3.711
		c0.119-6.354,0.385-12.711,0.301-19.062c-0.05-3.769,0.541-7.32,1.37-10.993c0.956-4.235,0.781-8.722,1.162-13.093
		c0.215-2.463,0.561-4.914,0.847-7.37c1.53-0.14,1.74,0.756,1.728,2.021c-0.044,4.49-0.024,8.982-0.012,13.474
		c0.003,1.114-0.297,2.273,1.362,2.779c0.438,0.134,0.479,1.71,0.622,2.637c0.196,1.267-0.627,2.972,1.56,3.337
		c0.182,0.03,0.428,0.553,0.403,0.824c-0.333,3.68,3.295,4.562,4.91,6.856c1.415,2.01,3.431,3.6,5.208,5.349
		c1.292,1.272,2.626,2.503,3.942,3.752C63.008,124.171,63.007,124.334,63.01,124.498z"/>
	<path fill-rule="evenodd" clip-rule="evenodd" fill="#6FC067" d="M196.526,100.508c-0.007-6.079,0.044-12.16-0.077-18.237
		c-0.02-0.99-0.828-1.954-1.218-2.951c-0.287-0.734-0.644-1.493-0.692-2.259c-0.104-1.659-0.019-3.33-0.04-4.995
		c-0.007-0.577,0.105-1.5-0.187-1.672c-2.282-1.345-1.698-3.525-1.847-5.529c-0.035-0.471-0.463-0.946-0.794-1.351
		c-0.249-0.305-0.946-0.572-0.909-0.73c0.801-3.414-2.521-5.753-2.32-9.036c0.047-0.767-0.768-1.559-1.073-2.381
		c-0.353-0.949-0.692-1.929-0.834-2.924c-0.177-1.241,0.422-2.749-1.435-3.251c-0.188-0.051-0.456-0.401-0.427-0.564
		c0.519-2.851-1.233-5.035-2.221-7.417c-0.394-0.951-1.249-1.73-1.965-2.523c-1.475-1.633-2.958-3.263-4.531-4.797
		c-0.344-0.336-1.103-0.21-1.631-0.405c-0.579-0.213-1.604-0.569-1.594-0.831c0.127-3.398-3.343-4.246-4.635-6.619
		c-0.212-0.389-1.303-0.206-1.781-0.563c-1.271-0.947-2.431-2.044-3.634-3.082c0.162-0.182,0.324-0.365,0.486-0.548
		c5.311,1.903,10.401,4.376,14.101,8.666c3.143,3.645,5.591,7.889,8.335,11.876c1.416,2.057,3.111,3.992,4.14,6.23
		c1.716,3.738,3.012,7.67,4.457,11.531c1.024,2.737,2.078,5.467,2.979,8.245c0.929,2.86,1.743,5.761,2.504,8.671
		c0.516,1.972,0.869,3.988,1.266,5.99c0.267,1.35,0.536,2.704,0.709,4.068c0.333,2.624,0.516,5.27,0.91,7.883
		c0.557,3.68,1.25,7.339,1.884,11.007c-0.481-0.003-0.963-0.006-1.444-0.008C200.848,101.503,198.687,101.006,196.526,100.508z"/>
	<path fill-rule="evenodd" clip-rule="evenodd" fill="#79D459" d="M206.014,135.005c-2.312,7.323-8.659,9.792-14.902,12.386
		c-0.531,0.222-1.065,0.437-1.598,0.655c-3.164,0.454-6.328,0.909-9.492,1.364c0.552-0.779,0.943-1.982,1.684-2.264
		c2.93-1.108,5.971-1.937,8.329-4.156c0.608-0.573,1.112-1.26,1.66-1.898c1.96-2.282,5.516-3.379,5.368-7.227
		c1.933-0.867,2.035-2.594,2.193-4.372c0.019-0.214,1.14-0.329,1.749-0.489c1.749,0.693,3.497,1.388,5.246,2.081
		C206.172,132.392,206.093,133.699,206.014,135.005z"/>
	<path fill-rule="evenodd" clip-rule="evenodd" fill="#84DC62" d="M206.251,131.085c-1.749-0.693-3.497-1.388-5.246-2.081
		c0.004-0.165,0.001-0.329-0.007-0.494c0.003-1.081-0.047-2.166,0.029-3.242c0.05-0.705,0.106-1.883,0.464-2.014
		c1.884-0.687,1.508-2.177,1.511-3.54c0.015-5.904,0.006-11.81,0.006-17.714c0.482,0.002,0.964,0.005,1.445,0.008
		c0.451,3.018,1.069,6.021,1.316,9.056c0.394,4.853,0.594,9.723,0.767,14.589C206.6,127.458,206.354,129.275,206.251,131.085z"/>
	<path fill-rule="evenodd" clip-rule="evenodd" fill="#698C52" d="M40.568,135.997c2.609,1.898,4.658,4.205,5.44,7.438
		c-2.266-1.693-5.034-2.881-5.951-5.927C40.228,137.004,40.398,136.5,40.568,135.997z"/>
	<path fill-rule="evenodd" clip-rule="evenodd" fill="#698C52" d="M184.534,122.522c3.154,0.998,6.392,2.017,9.546,3.016
		c0.006,0.167,0.012,0.333,0.016,0.501c-0.5,1.348-0.982,2.702-1.506,4.041c-0.773,1.984-1.502,3.992-2.428,5.904
		c-0.186,0.381-1.293,0.215-1.76,0.577c-1.32,1.022-3.219,1.978-3.637,3.342c-0.85,2.78-2.09,4.52-5.111,4.657
		c-0.299,0.014-0.801,0.181-0.85,0.369c-0.418,1.609-1.627,1.569-2.928,1.635c-1.715,0.086-1.496,1.184-0.895,2.244
		c0.258,0.453,0.742,0.776,1.123,1.158c-6.904,0.908-13.812,1.799-20.711,2.741c-1.119,0.153-2.205,0.534-3.305,0.81
		c-6.537,0.17-13.074,0.432-19.611,0.489c-12.625,0.112-25.055-0.651-37.681-0.606c-1.208-0.625-1.64-0.912-3.068-0.924
		c-3.55-0.029-7.252,0.276-10.611-0.615c-5.422-1.44-10.938-1.131-16.365-1.92c-1.837-0.267-3.581-1.172-5.369-1.784
		c1.411-0.044,2.833-0.007,4.23-0.176c0.505-0.061,0.95-0.614,1.423-0.943c-0.36-0.483-0.642-1.295-1.092-1.402
		c-5.447-1.297-9.07-5.186-12.607-9.048c-0.714-0.78-0.189-2.695-0.236-4.087c0.327,0.013,0.655,0.025,0.982,0.037l-0.009-0.009
		c0.167,0.158,0.333,0.316,0.499,0.476c0.178,0.178,0.356,0.356,0.535,0.534c0.158,0.166,0.316,0.332,0.475,0.498l-0.007-0.007
		c0.169,0.169,0.338,0.338,0.507,0.507l-0.007-0.007c0.166,0.158,0.332,0.315,0.498,0.474c0.178,0.179,0.357,0.357,0.535,0.535
		c0.158,0.166,0.316,0.332,0.475,0.498l-0.007-0.007c0.169,0.169,0.338,0.339,0.507,0.508l-0.007-0.008
		c0.166,0.158,0.332,0.316,0.499,0.475c0.327,0.343,0.654,0.686,0.981,1.028c0.844,0.169,1.687,0.337,2.53,0.505l-0.01-0.009
		c0.167,0.159,0.333,0.317,0.499,0.476c0.327,0.343,0.654,0.686,0.981,1.028c0.844,0.169,1.688,0.337,2.531,0.505
		c0,0-0.011-0.009-0.01-0.009c0.166,0.159,0.333,0.317,0.499,0.476c0.179,0.179,0.357,0.357,0.535,0.536
		c0.158,0.165,0.317,0.33,0.475,0.496c0,0-0.008-0.008-0.008-0.008c0.164,0.156,0.327,0.312,0.49,0.469
		c2.015,0.125,4.17-0.426,5.69,1.694c0.321,0.448,1.588,0.136,2.364,0.362c1.054,0.308,2.05,0.811,3.081,1.203
		c0.738,0.28,1.484,0.696,2.243,0.735c1.994,0.104,4.021-0.145,5.99,0.098c1.36,0.168,2.637,0.955,3.974,1.397
		c0.76,0.251,1.558,0.471,2.35,0.522c3.224,0.21,6.458,0.297,9.677,0.557c0.729,0.059,1.416,0.63,2.123,0.966
		c0.612,0.165,1.224,0.473,1.836,0.475c8.462,0.031,16.924,0.031,25.387,0c0.613-0.002,1.225-0.31,1.836-0.475
		c1.156-0.493,2.312-0.985,3.471-1.479c4.648-0.009,9.229-0.027,13.947-0.048c0.863-0.01,1.723-0.309,2.584-0.474
		c0.502-0.414,0.986-1.156,1.512-1.188c2.479-0.144,4.658-0.902,6.766-2.24c2.113-1.341,4.602-2.123,6.627-3.567
		c2.996-2.133,5.729-4.634,8.572-6.979c0.17-0.677,0.338-1.354,0.506-2.031l-0.01,0.01c0.158-0.166,0.316-0.332,0.477-0.498
		c0.178-0.179,0.355-0.356,0.533-0.535c0.166-0.157,0.332-0.315,0.498-0.474l-0.006,0.007c0.168-0.169,0.338-0.338,0.506-0.507
		l-0.006,0.007c0.158-0.166,0.314-0.332,0.473-0.498c0.18-0.179,0.357-0.356,0.535-0.535c0.166-0.157,0.332-0.315,0.498-0.474
		l-0.006,0.007c0.168-0.169,0.338-0.338,0.506-0.507l-0.006,0.007c0.158-0.166,0.316-0.332,0.473-0.498
		c0.344-0.327,0.688-0.654,1.029-0.981c0.168-0.676,0.338-1.351,0.506-2.026l-0.006,0.004c0.174-0.169,0.348-0.337,0.521-0.506
		c0.16-0.004,0.32-0.013,0.479-0.027c0.15-0.158,0.217-0.338,0.367-0.496C184.154,123.177,184.345,122.849,184.534,122.522z"/>
	<path fill-rule="evenodd" clip-rule="evenodd" fill="#68BC62" d="M176.022,149.946c-0.381-0.382-0.866-0.705-1.123-1.158
		c-0.603-1.061-0.821-2.158,0.894-2.244c1.301-0.065,2.511-0.025,2.929-1.635c0.049-0.188,0.55-0.355,0.85-0.369
		c3.021-0.138,4.261-1.877,5.111-4.657c0.418-1.364,2.316-2.319,3.636-3.342c0.468-0.362,1.575-0.196,1.76-0.577
		c0.926-1.912,1.654-3.92,2.429-5.904c0.522-1.339,1.005-2.693,1.505-4.041c2.329,0.83,4.658,1.661,6.986,2.492
		c0.008,0.165,0.011,0.329,0.007,0.494c-0.609,0.16-1.73,0.275-1.749,0.489c-0.158,1.778-0.261,3.505-2.193,4.372
		c0.147,3.848-3.408,4.944-5.368,7.227c-0.548,0.639-1.052,1.325-1.66,1.898c-2.358,2.22-5.399,3.048-8.329,4.156
		c-0.74,0.281-1.132,1.484-1.684,2.264C178.688,149.588,177.355,149.767,176.022,149.946z"/>
	<path fill-rule="evenodd" clip-rule="evenodd" fill="#7BD75A" d="M166.544,119.54c-0.623,0.618-1.256,1.225-1.866,1.855
		c-2.769,2.862-5.416,5.856-8.347,8.541c-1.28,1.172-3.059,1.96-4.745,2.491c-3.258,1.027-6.771,1.384-9.863,2.738
		c-1.728,0.757-3.294,1.371-5.151,1.436c-1.481,0.052-2.955,0.288-4.435,0.399c-1.492,0.112-2.771,0.089-4.249,1.184
		c-1.374,1.019-3.812,0.807-5.779,0.787c-7.637-0.08-15.408,0.496-22.856-0.773c-4.27-0.727-8.819-0.366-12.735-1.954
		c-2.125-0.862-4.22-0.692-6.153-1.437c-2.521-0.972-4.886-2.367-7.271-3.667c-1.348-0.734-3.084-0.306-4.144-2.162
		c-1.011-1.771-2.935-3.021-4.457-4.501c0.4-0.331,0.753-0.846,1.208-0.964c7.05-1.825,14.093-3.689,21.187-5.333
		c2.315-0.536,4.771-0.632,7.164-0.646c11.083-0.064,22.17-0.159,33.251,0.01c10.126,0.154,20.25,0.579,30.37,1.003
		C160.638,118.671,163.587,119.198,166.544,119.54z"/>
	<path fill-rule="evenodd" clip-rule="evenodd" fill="#FBF2DB" d="M59.948,61.919c-0.003-1.499-0.078-3.003,0.025-4.495
		c0.061-0.886,0.12-2.187,0.671-2.545c1.642-1.068,1.384-2.568,1.263-3.987c-0.294-3.431,1.981-5.799,3.337-8.544
		c0.768-1.554,2.121-2.961,2.417-4.58c0.827-4.517,4.985-6.183,7.443-9.27c2.028-2.547,5.212-3.477,8.184-4.667
		c1.938-0.776,3.564-2.315,5.484-3.165c2.464-1.09,5.079-1.842,7.639-2.711c0.382-0.13,0.911,0.033,1.216-0.171
		c5.644-3.786,11.911-1.07,17.854-1.679c1.528-0.157,2.562,0.999,2.58,2.713c0.018,1.683-0.87,2.427-2.344,3.303
		c-2.827,1.681-5.933,1.426-8.833,2.202c-4.139,1.107-7.944,3.448-11.91,5.22c-2.054,0.917-4.254,1.561-6.189,2.674
		c-1.432,0.824-2.586,2.163-3.786,3.35c-2.534,2.506-5.166,4.937-7.465,7.647c-1.419,1.672-2.458,3.728-3.382,5.742
		c-1.417,3.087-2.591,6.286-3.854,9.442c-0.121,0.302-0.205,0.643-0.205,0.966c-0.006,3.999-2.208,7.012-4.712,9.73
		c-0.681,0.739-2.505,0.905-3.609,0.607c-0.777-0.21-1.582-1.587-1.741-2.548C59.75,65.45,59.951,63.668,59.948,61.919z"/>
	<path fill-rule="evenodd" clip-rule="evenodd" fill="#4D5C3D" d="M144.007,83.848c0-1.997,0-3.995,0-5.992
		c0.001-4.67,4.982-7.954,9.056-5.592c1.257,0.729,3.161,1.903,3.023,4.412c-0.267,4.895-0.067,9.816-0.082,14.726
		c-0.009,2.531-2.098,4.576-4.655,4.602c-0.915,0.009-1.831,0.011-2.746,0c-2.52-0.029-4.578-2.11-4.592-4.665
		C143.996,88.842,144.007,86.345,144.007,83.848z M150.412,75.624c-1.669,0-3.191,0-4.785,0c0,1.645,0,3.167,0,4.761
		c1.645,0,3.167,0,4.785,0C150.412,78.801,150.412,77.337,150.412,75.624z M154.41,89.69c-1.14,0-1.996,0-2.717,0
		c0,1.052,0,1.908,0,2.629c1.049,0,1.907,0,2.717,0C154.41,91.33,154.41,90.529,154.41,89.69z"/>
	<path fill-rule="evenodd" clip-rule="evenodd" fill="#4D5C3D" d="M106.005,83.963c0,1.914-0.002,3.828,0,5.742
		c0.005,5.089-4.156,8.156-8.887,6.1c-1.325-0.576-3.245-1.828-3.164-4.271c0.168-5.071,0.035-10.151,0.059-15.228
		c0.009-1.968,2.263-4.24,4.203-4.297c0.915-0.027,1.831-0.007,2.746-0.005c3.097,0.009,5.032,1.915,5.042,4.968
		c0.004,1.165,0.001,2.33,0.001,3.495C106.005,81.633,106.005,82.798,106.005,83.963z M95.608,80.312c1.807,0,3.329,0,4.793,0
		c0-1.659,0-3.124,0-4.616c-1.69,0-3.269,0-4.793,0C95.608,77.355,95.608,78.819,95.608,80.312z M101.589,92.38
		c1.029,0,1.89,0,2.792,0c0-0.987,0-1.849,0-2.751c-0.99,0-1.849,0-2.792,0C101.589,90.555,101.589,91.359,101.589,92.38z"/>
	<path fill-rule="evenodd" clip-rule="evenodd" fill="#FBF2DB" d="M55.32,91.187c0.583-4.459,1.133-5.207,4.272-5.283
		c3.753-0.091,4.498,0.643,4.512,4.441c0.001,0.416,0.001,0.832,0,1.248c-0.011,4.097-3.006,6.116-6.547,4.019
		C56.358,94.902,56.041,92.705,55.32,91.187z"/>
	<path fill-rule="evenodd" clip-rule="evenodd" fill="#74C86C" d="M200.998,128.51c-2.328-0.831-4.657-1.662-6.986-2.492
		c-0.004-0.168-0.01-0.334-0.015-0.501c0.171-1.109,0.418-2.214,0.494-3.33c0.104-1.533-0.32-3.137,1.51-4.149
		c0.454-0.252,0.48-1.504,0.487-2.298c0.046-5.077,0.032-10.154,0.037-15.231c2.161,0.498,4.322,0.995,6.483,1.492
		c-0.001,5.904,0.008,11.81-0.007,17.714c-0.003,1.363,0.373,2.854-1.511,3.54c-0.357,0.131-0.414,1.309-0.464,2.014
		C200.951,126.344,201.001,127.429,200.998,128.51z"/>
</g>
</svg>
